<?xml version="1.0" encoding="UTF-8"?>
<svg xmlns="http://www.w3.org/2000/svg" xmlns:xlink="http://www.w3.org/1999/xlink" width="375pt" height="374.999991pt" viewBox="0 0 375 374.999991" version="1.2">
<defs>
<clipPath id="clip1">
  <path d="M 14 0 L 361.703125 0 L 361.703125 375 L 14 375 Z M 14 0 "/>
</clipPath>
</defs>
<g id="surface1">
<g clip-path="url(#clip1)" clip-rule="nonzero">
<path style=" stroke:none;fill-rule:nonzero;fill:rgb(9.408569%,12.939453%,16.859436%);fill-opacity:1;" d="M 359.515625 34.738281 C 357.964844 33.035156 354.609375 33.367188 354.609375 33.367188 L 272.910156 33.367188 L 271.605469 33.332031 C 210.96875 31.910156 222.925781 0.0742188 190.5 0.0234375 C 154.625 -0.03125 159.578125 34.160156 125.699219 34.96875 L 102.226562 36.027344 C 99.054688 36.195312 95.835938 36.195312 92.496094 36.027344 L 25.300781 36.027344 C 25.300781 36.027344 18.925781 35.300781 16.132812 38.609375 C 13.457031 41.765625 14.300781 45.039062 14.300781 48.050781 L 14.300781 233.8125 L 14.398438 233.8125 C 14.351562 235.21875 14.300781 236.640625 14.300781 238.078125 C 14.300781 288.226562 154.457031 374.96875 187.726562 374.96875 C 218.730469 374.96875 361.136719 288.226562 361.136719 238.078125 C 361.136719 236.640625 361.101562 235.21875 361.035156 233.8125 L 361.136719 233.8125 L 361.136719 41.136719 C 361.136719 41.136719 361.265625 36.671875 359.515625 34.738281 "/>
</g>
<path style=" stroke:none;fill-rule:nonzero;fill:rgb(85.099792%,85.099792%,85.099792%);fill-opacity:1;" d="M 322.449219 67.691406 C 321.226562 66.351562 318.601562 66.617188 318.601562 66.617188 L 254.507812 66.617188 L 253.5 66.585938 C 205.945312 65.476562 215.328125 40.507812 189.890625 40.460938 C 161.742188 40.410156 165.640625 67.246094 139.0625 67.875 L 120.644531 68.699219 C 118.183594 68.832031 115.640625 68.832031 113.03125 68.699219 L 60.320312 68.699219 C 60.320312 68.699219 55.332031 68.136719 53.136719 70.734375 C 51.039062 73.214844 51.699219 75.777344 51.699219 78.125 L 51.699219 223.824219 L 51.78125 223.824219 C 51.730469 224.933594 51.699219 226.042969 51.699219 227.167969 C 51.699219 266.5 161.628906 334.539062 187.710938 334.539062 C 212.023438 334.539062 323.722656 266.5 323.722656 227.167969 C 323.722656 226.042969 323.6875 224.933594 323.636719 223.824219 L 323.722656 223.824219 L 323.722656 72.71875 C 323.722656 72.71875 323.820312 69.195312 322.449219 67.691406 "/>
<path style=" stroke:none;fill-rule:nonzero;fill:rgb(9.408569%,12.939453%,16.859436%);fill-opacity:1;" d="M 233.84375 144.839844 L 233.828125 144.527344 C 233.449219 136.457031 232.09375 129.28125 229.78125 123.214844 C 227.371094 116.914062 223.917969 111.605469 219.472656 107.425781 C 211.613281 100.03125 200.90625 96.28125 187.660156 96.28125 C 174.675781 96.28125 163.511719 100.3125 155.382812 107.953125 C 150.824219 112.21875 147.320312 117.542969 144.992188 123.742188 C 142.664062 129.894531 141.476562 136.953125 141.476562 144.726562 L 141.476562 144.792969 C 141.476562 144.890625 141.539062 154.644531 141.476562 159.492188 C 141.390625 165.921875 146.546875 171.246094 152.988281 171.328125 C 156.109375 171.363281 159.082031 170.171875 161.328125 167.972656 C 163.527344 165.789062 164.75 162.898438 164.796875 159.804688 C 164.863281 154.761719 164.796875 145.253906 164.796875 144.675781 C 164.816406 135.136719 167.292969 128.257812 172.183594 124.238281 C 175.898438 121.179688 181.101562 119.625 187.660156 119.625 C 194.863281 119.625 200.046875 121.195312 203.484375 124.4375 C 207.648438 128.339844 210.007812 135.367188 210.519531 145.320312 C 210.503906 147.171875 210.457031 155.257812 210.519531 159.804688 C 210.554688 162.898438 211.792969 165.789062 213.988281 167.972656 C 216.1875 170.121094 219.09375 171.328125 222.183594 171.328125 L 222.332031 171.328125 C 228.757812 171.246094 233.925781 165.921875 233.84375 159.492188 C 233.777344 154.925781 233.828125 146.164062 233.84375 145.171875 L 233.84375 144.839844 "/>
<path style=" stroke:none;fill-rule:nonzero;fill:rgb(92.158508%,63.139343%,8.628845%);fill-opacity:1;" d="M 246.449219 236.738281 C 246.449219 245.4375 239.558594 252.5625 231.152344 252.5625 L 144.167969 252.5625 C 135.757812 252.5625 128.871094 245.4375 128.871094 236.738281 L 128.871094 177.148438 C 128.871094 168.453125 135.757812 161.324219 144.167969 161.324219 L 231.152344 161.324219 C 239.558594 161.324219 246.449219 168.453125 246.449219 177.148438 L 246.449219 236.738281 "/>
<path style=" stroke:none;fill-rule:nonzero;fill:rgb(9.408569%,12.939453%,16.859436%);fill-opacity:1;" d="M 197.851562 232.390625 C 203.5 232.390625 205.8125 228.390625 202.988281 223.496094 L 200.890625 219.839844 C 198.050781 214.929688 198.992188 207.640625 202.972656 203.621094 C 202.972656 203.621094 203.46875 203.109375 203.46875 197.320312 C 203.46875 188.574219 196.398438 181.480469 187.660156 181.480469 C 178.921875 181.480469 171.835938 188.574219 171.835938 197.320312 C 171.835938 203.109375 172.347656 203.621094 172.347656 203.621094 C 176.3125 207.640625 177.253906 214.929688 174.429688 219.839844 L 172.3125 223.496094 C 169.507812 228.390625 171.800781 232.390625 177.46875 232.390625 L 197.851562 232.390625 "/>
</g>
</svg>
