<?xml version="1.0" encoding="UTF-8" standalone="no"?>
<!-- Created with Inkscape (http://www.inkscape.org/) -->

<svg
   xmlns:dc="http://purl.org/dc/elements/1.1/"
   xmlns:cc="http://creativecommons.org/ns#"
   xmlns:rdf="http://www.w3.org/1999/02/22-rdf-syntax-ns#"
   xmlns:svg="http://www.w3.org/2000/svg"
   xmlns="http://www.w3.org/2000/svg"
   xmlns:sodipodi="http://sodipodi.sourceforge.net/DTD/sodipodi-0.dtd"
   xmlns:inkscape="http://www.inkscape.org/namespaces/inkscape"
   width="592.88324"
   height="418.513"
   id="svg2"
   version="1.1"
   inkscape:version="0.48.5 r10040"
   sodipodi:docname="safenet.svg">
  <defs
     id="defs4" />
  <sodipodi:namedview
     id="base"
     pagecolor="#ffffff"
     bordercolor="#666666"
     borderopacity="1.0"
     inkscape:pageopacity="0.0"
     inkscape:pageshadow="2"
     inkscape:zoom="0.35"
     inkscape:cx="252.87019"
     inkscape:cy="257.91008"
     inkscape:document-units="px"
     inkscape:current-layer="layer1"
     showgrid="false"
     inkscape:window-width="1366"
     inkscape:window-height="664"
     inkscape:window-x="-8"
     inkscape:window-y="-8"
     inkscape:window-maximized="1"
     fit-margin-top="0"
     fit-margin-left="0"
     fit-margin-right="0"
     fit-margin-bottom="0" />
  <metadata
     id="metadata7">
    <rdf:RDF>
      <cc:Work
         rdf:about="">
        <dc:format>image/svg+xml</dc:format>
        <dc:type
           rdf:resource="http://purl.org/dc/dcmitype/StillImage" />
        <dc:title></dc:title>
      </cc:Work>
    </rdf:RDF>
  </metadata>
  <g
     inkscape:label="Layer 1"
     inkscape:groupmode="layer"
     id="layer1"
     transform="translate(-122.12981,-396.04496)">
    <path
       style="fill:#060606"
       d="m 650.80206,810.75823 c -1.17618,-2.74987 -5.4086,-22.53631 -9.40532,-43.96991 -12.24428,-65.66341 -12.47258,-67.71975 -9.65649,-86.98073 1.39043,-9.50997 2.19368,-20.50913 1.785,-24.44259 l -0.74304,-7.15174 -13.27647,16.20664 c -14.55292,17.7648 -15.82194,20.66349 -33.18783,75.80843 -11.59578,36.82204 -15.01218,43.50679 -25.12858,49.16821 -3.45577,1.93395 -3.63099,2.75722 -1.20819,5.67652 5.65418,6.81288 1.17425,7.12828 -47.26923,3.3281 -81.09943,-6.36189 -193.81219,-8.34118 -234.89873,-4.1249 -30.80778,3.16147 -31.71594,-0.42911 -2.1161,-8.36639 22.02112,-5.90502 49.55233,-10.32769 77.46583,-12.44428 13.04391,-0.98906 24.30035,-2.38249 25.01433,-3.09646 0.714,-0.71398 -1.13793,-11.52797 -4.11538,-24.03108 -2.97745,-12.50309 -6.78393,-28.89441 -8.45887,-36.42513 -1.67493,-7.53073 -9.12683,-28.29621 -16.55977,-46.14552 -10.62227,-25.50814 -14.56879,-32.84334 -18.44116,-34.27584 -2.70971,-1.00238 -5.38781,-1.36145 -5.95134,-0.7979 -0.56352,0.56353 0.99598,9.0809 3.46557,18.92748 2.46961,9.84659 4.49019,21.47411 4.49019,25.83894 0,10.02696 -22.86307,90.61242 -26.83462,94.58396 -4.01877,4.01877 -8.43736,3.7182 -10.71812,-0.7291 -1.16332,-2.26838 -0.48456,-20.22948 1.76459,-46.6938 4.07263,-47.92007 3.35215,-55.82811 -8.01855,-88.01022 l -5.69597,-16.1211 -20.01171,-10.15097 c -28.64608,-14.53078 -45.98309,-28.0907 -41.56459,-32.5092 0.59717,-0.59719 4.62174,0.39162 8.94347,2.19735 9.64057,4.02808 11.77534,4.07438 16.84769,0.36537 3.69589,-2.70249 2.90964,-3.47551 -10.65649,-10.47742 -16.82073,-8.68173 -22.0195,-12.4124 -22.0195,-15.80135 0,-3.60266 1.96404,-3.12495 24.77059,6.02508 11.55101,4.63429 22.49925,8.42599 24.32938,8.42599 3.57851,0 15.84251,-9.60438 14.09492,-11.03825 -0.57928,-0.47529 -8.8947,-4.81708 -18.47869,-9.64841 -9.58399,-4.83131 -25.99063,-14.00232 -36.45922,-20.37999 -10.46859,-6.37767 -19.25209,-11.59576 -19.51888,-11.59576 -0.26681,0 -0.45984,8.76829 -0.42896,19.48509 0.0308,10.7168 -0.76755,31.80809 -1.77424,46.86954 -2.20137,32.93493 -1.83605,34.07454 19.58359,61.0884 30.10855,37.9721 31.33706,47.03305 16.27936,120.07029 -7.10639,34.46959 -9.79085,41.98365 -15.27888,42.76708 -2.9168,0.41639 -4.75424,-0.67844 -5.30298,-3.15975 -0.46183,-2.08829 0.0251,-25.35105 1.08223,-51.69502 l 1.92193,-47.89812 -5.56722,-7.92403 c -8.96579,-12.76135 -19.82687,-24.87284 -21.14391,-23.57816 -0.67023,0.6588 -3.10814,10.6235 -5.41759,22.14378 -7.45397,37.18253 -16.70928,59.80442 -36.98922,90.40918 -12.92137,19.49986 -22.61094,29.48866 -26.97922,27.81239 -2.47834,-0.95102 -1.47904,-5.08222 5.28901,-21.86522 11.25851,-27.91818 20.02073,-59.06845 22.69227,-80.67253 3.21763,-26.02002 2.73346,-70.54372 -0.98002,-90.11952 -3.9663,-20.90864 -11.55814,-86.59358 -11.55814,-100.0016 0,-16.25753 5.02105,-25.83331 15.9335,-30.38724 l 9.31853,-3.88876 0.78913,-29.49095 c 0.91822,-34.31438 3.66126,-44.87317 12.79474,-49.25066 14.88593,-7.13456 35.28592,-4.62545 38.32778,4.71417 2.29522,7.04711 0.98725,19.17428 -3.73149,34.59787 -5.8106,18.99245 -11.48156,27.69856 -20.49543,31.4648 l -7.5093,3.13759 7.98668,2.74569 c 4.39267,1.51013 12.893,6.00065 18.88958,9.97892 15.53358,10.30531 63.89572,39.49874 65.43403,39.49874 0.71006,0 1.29251,-5.45056 1.2943,-12.11235 0.006,-21.08068 6.19634,-28.43735 27.80895,-33.04682 l 5.69403,-1.2144 -3.27524,-8.93727 c -4.65092,-12.69108 -6.52355,-57.15843 -2.60762,-61.91922 3.90499,-4.74745 27.80445,-15.47921 34.472,-15.47921 2.92187,0 7.21439,1.90189 9.53895,4.22645 3.72251,3.72252 4.0786,6.04573 2.98646,19.48509 -3.31097,40.74373 -5.04971,44.26175 -29.60375,59.89781 -3.30193,2.10268 -1.85405,2.52931 8.93597,2.63312 l 12.87634,0.12386 31.8941,22.64483 c 26.89339,19.09434 36.02046,24.28803 58.21176,33.12504 29.32058,11.67599 27.82575,11.56319 68.45989,5.16629 33.69071,-5.30382 85.33779,-18.36079 124.28329,-31.42023 38.90212,-13.0449 46.34292,-16.24117 46.34292,-19.90715 0,-1.6355 -4.02868,-5.19163 -8.95261,-7.9025 -8.94168,-4.92284 -8.95339,-4.94529 -9.58861,-18.40385 -1.16405,-24.66349 5.2627,-54.47528 13.52476,-62.73733 4.471,-4.471 6.36864,-4.97555 14.04555,-3.73444 12.91365,2.08772 25.92832,8.28832 29.80037,14.1978 3.07484,4.69281 3.08511,6.53334 0.11586,20.73538 -1.79225,8.57201 -5.78227,23.36383 -8.86673,32.87072 l -5.60812,17.28528 4.92366,10.51219 c 6.74475,14.40033 5.46743,22.50547 -11.55015,73.29137 -7.6888,22.9458 -16.75994,51.19886 -20.1581,62.78459 -6.78024,23.11669 -11.50191,60.27065 -9.35767,73.63382 8.99761,56.07424 7.04712,96.4594 -5.19373,107.53723 -3.88008,3.51141 -4.14371,3.45468 -6.1912,-1.33213 z m -97.21082,-41.33679 c 3.3813,-22.31783 8.80947,-47.44527 16.04069,-74.254 5.82503,-21.59538 11.13888,-31.56859 41.33805,-77.58449 l 18.65248,-28.42169 0,-28.3427 c 0,-26.00346 -0.30426,-28.25286 -3.68637,-27.25404 -2.0275,0.59877 -13.05994,3.77994 -24.51652,7.0693 -19.31288,5.54499 -21.20355,6.57214 -25.95662,14.10149 -2.81959,4.46649 -4.58795,8.65947 -3.92972,9.31771 0.65824,0.65824 9.4163,-0.8845 19.46232,-3.42828 13.02276,-3.29753 18.91529,-3.97532 20.52924,-2.36136 3.27405,3.27404 -0.50964,5.19102 -27.46157,13.91313 -21.3576,6.91167 -24.13847,8.42024 -31.28779,16.97314 -4.3157,5.16296 -7.4092,9.82476 -6.8744,10.35954 0.53477,0.53477 12.24447,-2.51855 26.02153,-6.78515 27.6928,-8.57618 38.74143,-10.73361 38.74143,-7.5649 0,1.15333 -3.13103,3.58273 -6.95784,5.39866 -64.81634,30.75737 -127.68466,45.62774 -192.90303,45.62774 -24.10222,0 -31.84296,0.64076 -31.80953,2.63312 0.0242,1.44822 2.44507,10.69047 5.37945,20.53834 4.92123,16.51578 8.60634,44.03658 12.43959,92.90066 l 1.42149,18.12002 30.90769,1.45944 c 35.4271,1.67284 71.8309,6.08302 96.20908,11.6554 26.97672,6.16634 25.02705,7.13778 28.24035,-14.07108 z M 390.2557,609.50561 c 4.21129,-5.40538 7.22665,-10.25818 6.70081,-10.78402 -0.52583,-0.52584 -12.47358,-1.75638 -26.55051,-2.73451 l -25.59446,-1.77845 -9.24878,7.73103 c -5.08684,4.25205 -8.54391,8.39416 -7.6824,9.20463 1.59165,1.49741 39.13706,7.58194 49.20738,7.97446 4.18879,0.16326 7.34815,-2.14319 13.16796,-9.61314 z m 63.69219,1.9286 c 13.90437,-14.89133 13.77293,-15.2721 -5.27287,-15.2721 -20.91395,0 -24.57646,1.43015 -34.54665,13.48979 l -8.0042,9.68167 20.22394,0 20.22397,0 7.37581,-7.89936 z m 42.9653,0.45022 c 10.31676,-1.27729 12.70091,-2.58218 21.76733,-11.91346 5.59987,-5.76345 9.66499,-10.99563 9.03359,-11.62706 -0.63142,-0.6314 -8.63681,0.0169 -17.78976,1.44083 -16.4375,2.55705 -16.73578,2.71479 -24.30569,12.85436 -8.66079,11.6008 -9.20374,13.20097 -3.97757,11.72255 2.02751,-0.57356 8.89995,-1.68831 15.2721,-2.47722 z M 311.37988,599.13461 c 3.56462,-2.99944 6.48112,-6.19384 6.48112,-7.09868 0,-0.90485 -5.92452,-2.78536 -13.1656,-4.17891 -7.24108,-1.39355 -18.08907,-3.93852 -24.10664,-5.65546 -9.80728,-2.79823 -11.60812,-2.77676 -17.37859,0.20728 -3.54067,1.83095 -6.43756,4.06581 -6.43756,4.9664 0,1.8913 39.32508,16.98873 44.60141,17.1231 1.93863,0.0493 6.44127,-2.36431 10.00586,-5.36373 z M 414.8462,577.08235 c 2.52243,-3.54241 4.2313,-6.7957 3.79749,-7.22949 -0.43381,-0.43381 -12.34839,-1.00497 -26.47687,-1.26925 -24.85091,-0.46484 -25.8259,-0.31503 -29.91518,4.5964 -2.32487,2.79228 -4.25857,5.72777 -4.29712,6.52329 -0.0969,1.99856 10.19449,3.08585 32.9638,3.48271 19.32112,0.33677 19.3465,0.3303 23.92788,-6.10366 z m 60.30141,3.15088 c 4.00792,-0.80411 13.3396,-12.45205 13.3396,-16.65065 0,-1.41687 -10.45109,-0.75044 -36.50202,2.32757 -8.5274,1.00756 -10.82367,2.27234 -14.211,7.82749 -2.22208,3.64415 -4.04369,7.34223 -4.04801,8.2179 -0.008,1.52041 31.86425,0.19506 41.42143,-1.72231 z m -134.26804,-6.47341 c 5.94915,-7.56312 5.51578,-9.18272 -2.48023,-9.26915 -3.76536,-0.0407 -12.93033,-1.37841 -20.36659,-2.97269 -14.24525,-3.05406 -18.44093,-2.31563 -27.40428,4.8231 l -5.11432,4.07322 11.43381,2.45908 c 35.54569,7.64484 38.5675,7.7058 43.93161,0.88644 z m 186.57782,0.0946 c 5.79286,-0.77127 12.10662,-2.21707 14.03057,-3.21289 3.69505,-1.91253 13.37404,-16.23814 11.94004,-17.67211 -0.46263,-0.46265 -9.70886,0.73063 -20.54716,2.65174 -18.04299,3.19812 -20.03596,4.03398 -23.61595,9.90455 -5.62656,9.2266 -5.10809,12.24551 1.86715,10.87182 3.18608,-0.62746 10.53248,-1.77186 16.32535,-2.54311 z M 409.03857,552.25156 c 2.97203,-1.17401 1.43012,-2.63029 -7.37274,-6.96312 -6.12188,-3.01326 -16.34428,-9.41265 -22.71643,-14.22086 l -11.58573,-8.74219 -0.63505,12.99841 c -0.34928,7.14911 -0.14198,14.28314 0.4605,15.85339 0.81309,2.11884 5.86529,2.81683 19.59354,2.70693 10.17387,-0.0815 20.18904,-0.81608 22.25591,-1.63256 z"
       id="path2987"
       inkscape:connector-curvature="0" />
  </g>
</svg>
